<?xml version="1.0"?>
<svg xmlns="http://www.w3.org/2000/svg" id="Solid" viewBox="0 0 512 512" width="512" height="512"><path d="M344,208c-36.3,0-69.4,14.759-94.139,41.742A149.313,149.313,0,0,1,275.813,273c28.218,31.874,43.871,76.417,44.173,125.553A210.236,210.236,0,0,0,344,400c64.807,0,121.011-28.379,135.952-36.614-.927-43.955-15.09-83.5-40.119-111.777C414.938,223.487,380.9,208,344,208Z"/><circle cx="344" cy="128" r="64"/><path d="M168,240c-36.9,0-70.938,15.487-95.833,43.609-24.992,28.23-39.15,67.706-40.114,111.581C48.2,403.413,108.617,432,168,432c64.664,0,120.985-28.389,135.951-36.62-.927-43.952-15.09-83.5-40.118-111.771C238.938,255.487,204.9,240,168,240Z"/><circle cx="168" cy="160" r="64"/></svg>
